solid PrintKbot-FINAL
facet normal -0.965925826289032 0.258819045102658 0.0
   outer loop
      vertex 825.640962071408 153.987176257892 3.00000288355224
      vertex 825.54170878051 153.616757933443 2.88355223734271e-006
      vertex 825.54170878051 153.616757933443 3.00000288355224
   endloop
endfacet
facet normal -0.965925826289032 0.258819045102658 0.0
   outer loop
      vertex 825.54170878051 153.616757933443 2.88355223734271e-006
      vertex 825.640962071408 153.987176257892 3.00000288355224
      vertex 825.640962071408 153.987176257892 2.88355223734271e-006
   endloop
endfacet
facet normal -0.906307787036861 0.422618261740247 0.0
   outer loop
      vertex 825.54170878051 153.616757933443 3.00000288355224
      vertex 825.379640903107 153.269202248759 2.88355223734271e-006
      vertex 825.379640903107 153.269202248759 3.00000288355224
   endloop
endfacet
facet normal -0.906307787036861 0.422618261740247 0.0
   outer loop
      vertex 825.379640903107 153.269202248759 2.88355223734271e-006
      vertex 825.54170878051 153.616757933443 3.00000288355224
      vertex 825.54170878051 153.616757933443 2.88355223734271e-006
   endloop
endfacet
facet normal 0.819152044288506 -0.57357643635174 -0.0
   outer loop
      vertex 821.789087239919 155.78333499007 2.88355223734271e-006
      vertex 821.569129126455 155.469202248759 3.00000288355224
      vertex 821.569129126455 155.469202248759 2.88355223734271e-006
   endloop
endfacet
facet normal 0.819152044288506 -0.57357643635174 -0.0
   outer loop
      vertex 821.569129126455 155.469202248759 3.00000288355224
      vertex 821.789087239919 155.78333499007 2.88355223734271e-006
      vertex 821.789087239919 155.78333499007 3.00000288355224
   endloop
endfacet
facet normal 0.707106781186548 -0.707106781186548 0.0
   outer loop
      vertex 822.060252273471 156.054500023621 2.88355223734271e-006
      vertex 821.789087239919 155.78333499007 3.00000288355224
      vertex 821.789087239919 155.78333499007 2.88355223734271e-006
   endloop
endfacet
facet normal 0.707106781186548 -0.707106781186548 0.0
   outer loop
      vertex 821.789087239919 155.78333499007 3.00000288355224
      vertex 822.060252273471 156.054500023621 2.88355223734271e-006
      vertex 822.060252273471 156.054500023621 3.00000288355224
   endloop
endfacet
facet normal -0.0 1.0 -0.0
   outer loop
      vertex 808.474385014781 164.879202248759 5.00000288355224
      vertex 839.984385014781 164.879202248759 2.88355223734271e-006
      vertex 808.474385014781 164.879202248759 2.88355223734271e-006
   endloop
endfacet
facet normal -0.0 1.0 -0.0
   outer loop
      vertex 839.984385014781 164.879202248759 2.88355223734271e-006
      vertex 808.474385014781 164.879202248759 5.00000288355224
      vertex 839.984385014781 164.879202248759 5.00000288355224
   endloop
endfacet
facet normal -1.0 0.0 0.0
   outer loop
      vertex 837.474385014781 162.369202248759 5.00000288355224
      vertex 837.474385014781 148.369202248759 3.00000288355224
      vertex 837.474385014781 148.369202248759 5.00000288355224
   endloop
endfacet
facet normal -1.0 0.0 0.0
   outer loop
      vertex 837.474385014781 148.369202248759 3.00000288355224
      vertex 837.474385014781 162.369202248759 5.00000288355224
      vertex 837.474385014781 162.369202248759 3.00000288355224
   endloop
endfacet
facet normal 0.707106781186548 0.707106781186548 -0.0
   outer loop
      vertex 821.789087239919 152.955069507449 2.88355223734271e-006
      vertex 822.060252273471 152.683904473897 3.00000288355224
      vertex 822.060252273471 152.683904473897 2.88355223734271e-006
   endloop
endfacet
facet normal 0.707106781186548 0.707106781186548 -0.0
   outer loop
      vertex 822.060252273471 152.683904473897 3.00000288355224
      vertex 821.789087239919 152.955069507449 2.88355223734271e-006
      vertex 821.789087239919 152.955069507449 3.00000288355224
   endloop
endfacet
facet normal 0.819152044288506 0.57357643635174 -0.0
   outer loop
      vertex 821.569129126455 153.269202248759 2.88355223734271e-006
      vertex 821.789087239919 152.955069507449 3.00000288355224
      vertex 821.789087239919 152.955069507449 2.88355223734271e-006
   endloop
endfacet
facet normal 0.819152044288506 0.57357643635174 -0.0
   outer loop
      vertex 821.789087239919 152.955069507449 3.00000288355224
      vertex 821.569129126455 153.269202248759 2.88355223734271e-006
      vertex 821.569129126455 153.269202248759 3.00000288355224
   endloop
endfacet
facet normal 0.906307787036861 0.422618261740247 -0.0
   outer loop
      vertex 821.407061249052 153.616757933443 2.88355223734271e-006
      vertex 821.569129126455 153.269202248759 3.00000288355224
      vertex 821.569129126455 153.269202248759 2.88355223734271e-006
   endloop
endfacet
facet normal 0.906307787036861 0.422618261740247 -0.0
   outer loop
      vertex 821.569129126455 153.269202248759 3.00000288355224
      vertex 821.407061249052 153.616757933443 2.88355223734271e-006
      vertex 821.407061249052 153.616757933443 3.00000288355224
   endloop
endfacet
facet normal -0.0 -0.0 1.0
   outer loop
      vertex 839.984385014781 148.369202248759 5.00000288355224
      vertex 837.474385014781 162.369202248759 5.00000288355224
      vertex 837.474385014781 148.369202248759 5.00000288355224
   endloop
endfacet
facet normal -0.0 -0.0 1.0
   outer loop
      vertex 837.474385014781 162.369202248759 5.00000288355224
      vertex 808.474385014781 164.879202248759 5.00000288355224
      vertex 808.474385014781 162.369202248759 5.00000288355224
   endloop
endfacet
facet normal -0.0 -0.0 1.0
   outer loop
      vertex 808.474385014781 164.879202248759 5.00000288355224
      vertex 837.474385014781 162.369202248759 5.00000288355224
      vertex 839.984385014781 164.879202248759 5.00000288355224
   endloop
endfacet
facet normal -0.0 -0.0 1.0
   outer loop
      vertex 839.984385014781 164.879202248759 5.00000288355224
      vertex 837.474385014781 162.369202248759 5.00000288355224
      vertex 839.984385014781 148.369202248759 5.00000288355224
   endloop
endfacet
facet normal 0.996194698091767 0.0871557427474129 -0.0
   outer loop
      vertex 821.274385014781 154.369202248759 2.88355223734271e-006
      vertex 821.307807958154 153.987176257892 3.00000288355224
      vertex 821.307807958154 153.987176257892 2.88355223734271e-006
   endloop
endfacet
facet normal 0.996194698091767 0.0871557427474129 -0.0
   outer loop
      vertex 821.307807958154 153.987176257892 3.00000288355224
      vertex 821.274385014781 154.369202248759 2.88355223734271e-006
      vertex 821.274385014781 154.369202248759 3.00000288355224
   endloop
endfacet
facet normal 0.0 -1.0 0.0
   outer loop
      vertex 837.474385014781 162.369202248759 5.00000288355224
      vertex 808.474385014781 162.369202248759 3.00000288355224
      vertex 837.474385014781 162.369202248759 3.00000288355224
   endloop
endfacet
facet normal 0.0 -1.0 0.0
   outer loop
      vertex 808.474385014781 162.369202248759 3.00000288355224
      vertex 837.474385014781 162.369202248759 5.00000288355224
      vertex 808.474385014781 162.369202248759 5.00000288355224
   endloop
endfacet
facet normal -0.258819045102644 0.965925826289035 -0.0
   outer loop
      vertex 823.856411005648 152.202625192132 3.00000288355224
      vertex 824.226829330097 152.30187848303 2.88355223734271e-006
      vertex 823.856411005648 152.202625192132 2.88355223734271e-006
   endloop
endfacet
facet normal -0.258819045102644 0.965925826289035 -0.0
   outer loop
      vertex 824.226829330097 152.30187848303 2.88355223734271e-006
      vertex 823.856411005648 152.202625192132 3.00000288355224
      vertex 824.226829330097 152.30187848303 3.00000288355224
   endloop
endfacet
facet normal 0.258819045102409 0.965925826289098 -0.0
   outer loop
      vertex 822.721940699465 152.30187848303 3.00000288355224
      vertex 823.092359023914 152.202625192132 2.88355223734271e-006
      vertex 822.721940699465 152.30187848303 2.88355223734271e-006
   endloop
endfacet
facet normal 0.258819045102409 0.965925826289098 -0.0
   outer loop
      vertex 823.092359023914 152.202625192132 2.88355223734271e-006
      vertex 822.721940699465 152.30187848303 3.00000288355224
      vertex 823.092359023914 152.202625192132 3.00000288355224
   endloop
endfacet
facet normal 0.422618261740505 0.906307787036741 -0.0
   outer loop
      vertex 822.374385014781 152.463946360433 3.00000288355224
      vertex 822.721940699465 152.30187848303 2.88355223734271e-006
      vertex 822.374385014781 152.463946360433 2.88355223734271e-006
   endloop
endfacet
facet normal 0.422618261740505 0.906307787036741 -0.0
   outer loop
      vertex 822.721940699465 152.30187848303 2.88355223734271e-006
      vertex 822.374385014781 152.463946360433 3.00000288355224
      vertex 822.721940699465 152.30187848303 3.00000288355224
   endloop
endfacet
facet normal -0.819152044288948 -0.573576436351109 0.0
   outer loop
      vertex 825.159682789643 155.78333499007 3.00000288355224
      vertex 825.379640903107 155.469202248759 2.88355223734271e-006
      vertex 825.379640903107 155.469202248759 3.00000288355224
   endloop
endfacet
facet normal -0.819152044288948 -0.573576436351109 0.0
   outer loop
      vertex 825.379640903107 155.469202248759 2.88355223734271e-006
      vertex 825.159682789643 155.78333499007 3.00000288355224
      vertex 825.159682789643 155.78333499007 2.88355223734271e-006
   endloop
endfacet
facet normal -0.707106781186548 -0.707106781186548 0.0
   outer loop
      vertex 824.888517756091 156.054500023621 3.00000288355224
      vertex 825.159682789643 155.78333499007 2.88355223734271e-006
      vertex 825.159682789643 155.78333499007 3.00000288355224
   endloop
endfacet
facet normal -0.707106781186548 -0.707106781186548 0.0
   outer loop
      vertex 825.159682789643 155.78333499007 2.88355223734271e-006
      vertex 824.888517756091 156.054500023621 3.00000288355224
      vertex 824.888517756091 156.054500023621 2.88355223734271e-006
   endloop
endfacet
facet normal 0.422618261740409 -0.906307787036786 0.0
   outer loop
      vertex 822.721940699465 156.436526014488 3.00000288355224
      vertex 822.374385014781 156.274458137085 2.88355223734271e-006
      vertex 822.721940699465 156.436526014488 2.88355223734271e-006
   endloop
endfacet
facet normal 0.422618261740409 -0.906307787036786 0.0
   outer loop
      vertex 822.374385014781 156.274458137085 2.88355223734271e-006
      vertex 822.721940699465 156.436526014488 3.00000288355224
      vertex 822.374385014781 156.274458137085 3.00000288355224
   endloop
endfacet
facet normal 0.573576436351124 -0.819152044288937 0.0
   outer loop
      vertex 822.374385014781 156.274458137085 3.00000288355224
      vertex 822.060252273471 156.054500023621 2.88355223734271e-006
      vertex 822.374385014781 156.274458137085 2.88355223734271e-006
   endloop
endfacet
facet normal 0.573576436351124 -0.819152044288937 0.0
   outer loop
      vertex 822.060252273471 156.054500023621 2.88355223734271e-006
      vertex 822.374385014781 156.274458137085 3.00000288355224
      vertex 822.060252273471 156.054500023621 3.00000288355224
   endloop
endfacet
facet normal -0.573576436351124 -0.819152044288937 0.0
   outer loop
      vertex 824.888517756091 156.054500023621 3.00000288355224
      vertex 824.574385014781 156.274458137085 2.88355223734271e-006
      vertex 824.888517756091 156.054500023621 2.88355223734271e-006
   endloop
endfacet
facet normal -0.573576436351124 -0.819152044288937 0.0
   outer loop
      vertex 824.574385014781 156.274458137085 2.88355223734271e-006
      vertex 824.888517756091 156.054500023621 3.00000288355224
      vertex 824.574385014781 156.274458137085 3.00000288355224
   endloop
endfacet
facet normal -0.422618261740409 -0.906307787036786 0.0
   outer loop
      vertex 824.574385014781 156.274458137085 3.00000288355224
      vertex 824.226829330097 156.436526014488 2.88355223734271e-006
      vertex 824.574385014781 156.274458137085 2.88355223734271e-006
   endloop
endfacet
facet normal -0.422618261740409 -0.906307787036786 0.0
   outer loop
      vertex 824.226829330097 156.436526014488 2.88355223734271e-006
      vertex 824.574385014781 156.274458137085 3.00000288355224
      vertex 824.226829330097 156.436526014488 3.00000288355224
   endloop
endfacet
facet normal 0.0871557427476873 0.996194698091743 -0.0
   outer loop
      vertex 823.092359023914 152.202625192132 3.00000288355224
      vertex 823.474385014781 152.169202248759 2.88355223734271e-006
      vertex 823.092359023914 152.202625192132 2.88355223734271e-006
   endloop
endfacet
facet normal 0.0871557427476873 0.996194698091743 -0.0
   outer loop
      vertex 823.474385014781 152.169202248759 2.88355223734271e-006
      vertex 823.092359023914 152.202625192132 3.00000288355224
      vertex 823.474385014781 152.169202248759 3.00000288355224
   endloop
endfacet
facet normal -1.0 0.0 0.0
   outer loop
      vertex 808.474385014781 164.879202248759 5.00000288355224
      vertex 808.474385014781 162.369202248759 3.00000288355224
      vertex 808.474385014781 162.369202248759 5.00000288355224
   endloop
endfacet
facet normal -1.0 0.0 0.0
   outer loop
      vertex 808.474385014781 162.369202248759 3.00000288355224
      vertex 808.474385014781 149.369202248759 2.88355223734271e-006
      vertex 808.474385014781 149.369202248759 3.00000288355224
   endloop
endfacet
facet normal -1.0 0.0 0.0
   outer loop
      vertex 808.474385014781 149.369202248759 2.88355223734271e-006
      vertex 808.474385014781 162.369202248759 3.00000288355224
      vertex 808.474385014781 164.879202248759 2.88355223734271e-006
   endloop
endfacet
facet normal -1.0 0.0 0.0
   outer loop
      vertex 808.474385014781 164.879202248759 2.88355223734271e-006
      vertex 808.474385014781 162.369202248759 3.00000288355224
      vertex 808.474385014781 164.879202248759 5.00000288355224
   endloop
endfacet
facet normal 0.573576436351085 0.819152044288964 -0.0
   outer loop
      vertex 822.060252273471 152.683904473897 3.00000288355224
      vertex 822.374385014781 152.463946360433 2.88355223734271e-006
      vertex 822.060252273471 152.683904473897 2.88355223734271e-006
   endloop
endfacet
facet normal 0.573576436351085 0.819152044288964 -0.0
   outer loop
      vertex 822.374385014781 152.463946360433 2.88355223734271e-006
      vertex 822.060252273471 152.683904473897 3.00000288355224
      vertex 822.374385014781 152.463946360433 3.00000288355224
   endloop
endfacet
facet normal 0.258819045102519 -0.965925826289069 0.0
   outer loop
      vertex 823.092359023914 156.535779305386 3.00000288355224
      vertex 822.721940699465 156.436526014488 2.88355223734271e-006
      vertex 823.092359023914 156.535779305386 2.88355223734271e-006
   endloop
endfacet
facet normal 0.258819045102519 -0.965925826289069 0.0
   outer loop
      vertex 822.721940699465 156.436526014488 2.88355223734271e-006
      vertex 823.092359023914 156.535779305386 3.00000288355224
      vertex 822.721940699465 156.436526014488 3.00000288355224
   endloop
endfacet
facet normal 0.0 0.0 -1.0
   outer loop
      vertex 808.474385014781 164.879202248759 2.88355223734271e-006
      vertex 822.374385014781 156.274458137085 2.88355223734271e-006
      vertex 808.474385014781 149.369202248759 2.88355223734271e-006
   endloop
endfacet
facet normal 0.0 0.0 -1.0
   outer loop
      vertex 822.374385014781 156.274458137085 2.88355223734271e-006
      vertex 808.474385014781 164.879202248759 2.88355223734271e-006
      vertex 839.984385014781 164.879202248759 2.88355223734271e-006
   endloop
endfacet
facet normal 0.0 0.0 -1.0
   outer loop
      vertex 808.474385014781 149.369202248759 2.88355223734271e-006
      vertex 822.374385014781 156.274458137085 2.88355223734271e-006
      vertex 809.474385014781 148.369202248759 2.88355223734271e-006
   endloop
endfacet
facet normal 0.0 0.0 -1.0
   outer loop
      vertex 809.474385014781 148.369202248759 2.88355223734271e-006
      vertex 822.374385014781 156.274458137085 2.88355223734271e-006
      vertex 822.060252273471 156.054500023621 2.88355223734271e-006
   endloop
endfacet
facet normal 0.0 0.0 -1.0
   outer loop
      vertex 809.474385014781 148.369202248759 2.88355223734271e-006
      vertex 822.060252273471 156.054500023621 2.88355223734271e-006
      vertex 821.789087239919 155.78333499007 2.88355223734271e-006
   endloop
endfacet
facet normal 0.0 0.0 -1.0
   outer loop
      vertex 809.474385014781 148.369202248759 2.88355223734271e-006
      vertex 821.789087239919 155.78333499007 2.88355223734271e-006
      vertex 821.569129126455 155.469202248759 2.88355223734271e-006
   endloop
endfacet
facet normal 0.0 0.0 -1.0
   outer loop
      vertex 809.474385014781 148.369202248759 2.88355223734271e-006
      vertex 821.569129126455 155.469202248759 2.88355223734271e-006
      vertex 821.407061249052 155.121646564076 2.88355223734271e-006
   endloop
endfacet
facet normal 0.0 0.0 -1.0
   outer loop
      vertex 809.474385014781 148.369202248759 2.88355223734271e-006
      vertex 821.407061249052 155.121646564076 2.88355223734271e-006
      vertex 821.307807958154 154.751228239626 2.88355223734271e-006
   endloop
endfacet
facet normal 0.0 0.0 -1.0
   outer loop
      vertex 809.474385014781 148.369202248759 2.88355223734271e-006
      vertex 821.307807958154 154.751228239626 2.88355223734271e-006
      vertex 821.274385014781 154.369202248759 2.88355223734271e-006
   endloop
endfacet
facet normal 0.0 0.0 -1.0
   outer loop
      vertex 822.374385014781 156.274458137085 2.88355223734271e-006
      vertex 839.984385014781 164.879202248759 2.88355223734271e-006
      vertex 822.721940699465 156.436526014488 2.88355223734271e-006
   endloop
endfacet
facet normal 0.0 0.0 -1.0
   outer loop
      vertex 822.721940699465 156.436526014488 2.88355223734271e-006
      vertex 839.984385014781 164.879202248759 2.88355223734271e-006
      vertex 823.092359023914 156.535779305386 2.88355223734271e-006
   endloop
endfacet
facet normal 0.0 0.0 -1.0
   outer loop
      vertex 823.092359023914 156.535779305386 2.88355223734271e-006
      vertex 839.984385014781 164.879202248759 2.88355223734271e-006
      vertex 823.474385014781 156.569202248759 2.88355223734271e-006
   endloop
endfacet
facet normal 0.0 0.0 -1.0
   outer loop
      vertex 823.474385014781 156.569202248759 2.88355223734271e-006
      vertex 839.984385014781 164.879202248759 2.88355223734271e-006
      vertex 823.856411005648 156.535779305386 2.88355223734271e-006
   endloop
endfacet
facet normal 0.0 0.0 -1.0
   outer loop
      vertex 823.856411005648 156.535779305386 2.88355223734271e-006
      vertex 839.984385014781 164.879202248759 2.88355223734271e-006
      vertex 824.226829330097 156.436526014488 2.88355223734271e-006
   endloop
endfacet
facet normal 0.0 0.0 -1.0
   outer loop
      vertex 824.226829330097 156.436526014488 2.88355223734271e-006
      vertex 839.984385014781 164.879202248759 2.88355223734271e-006
      vertex 824.574385014781 156.274458137085 2.88355223734271e-006
   endloop
endfacet
facet normal 0.0 0.0 -1.0
   outer loop
      vertex 824.574385014781 156.274458137085 2.88355223734271e-006
      vertex 839.984385014781 164.879202248759 2.88355223734271e-006
      vertex 824.888517756091 156.054500023621 2.88355223734271e-006
   endloop
endfacet
facet normal 0.0 0.0 -1.0
   outer loop
      vertex 824.888517756091 156.054500023621 2.88355223734271e-006
      vertex 839.984385014781 164.879202248759 2.88355223734271e-006
      vertex 825.159682789643 155.78333499007 2.88355223734271e-006
   endloop
endfacet
facet normal 0.0 0.0 -1.0
   outer loop
      vertex 825.159682789643 155.78333499007 2.88355223734271e-006
      vertex 839.984385014781 164.879202248759 2.88355223734271e-006
      vertex 825.379640903107 155.469202248759 2.88355223734271e-006
   endloop
endfacet
facet normal 0.0 0.0 -1.0
   outer loop
      vertex 825.379640903107 155.469202248759 2.88355223734271e-006
      vertex 839.984385014781 164.879202248759 2.88355223734271e-006
      vertex 825.54170878051 155.121646564076 2.88355223734271e-006
   endloop
endfacet
facet normal 0.0 0.0 -1.0
   outer loop
      vertex 825.54170878051 155.121646564076 2.88355223734271e-006
      vertex 839.984385014781 164.879202248759 2.88355223734271e-006
      vertex 825.640962071408 154.751228239626 2.88355223734271e-006
   endloop
endfacet
facet normal 0.0 0.0 -1.0
   outer loop
      vertex 825.640962071408 154.751228239626 2.88355223734271e-006
      vertex 839.984385014781 164.879202248759 2.88355223734271e-006
      vertex 825.674385014781 154.369202248759 2.88355223734271e-006
   endloop
endfacet
facet normal 0.0 0.0 -1.0
   outer loop
      vertex 809.474385014781 148.369202248759 2.88355223734271e-006
      vertex 823.092359023914 152.202625192132 2.88355223734271e-006
      vertex 839.984385014781 148.369202248759 2.88355223734271e-006
   endloop
endfacet
facet normal 0.0 0.0 -1.0
   outer loop
      vertex 823.092359023914 152.202625192132 2.88355223734271e-006
      vertex 809.474385014781 148.369202248759 2.88355223734271e-006
      vertex 822.721940699465 152.30187848303 2.88355223734271e-006
   endloop
endfacet
facet normal 0.0 0.0 -1.0
   outer loop
      vertex 822.721940699465 152.30187848303 2.88355223734271e-006
      vertex 809.474385014781 148.369202248759 2.88355223734271e-006
      vertex 822.374385014781 152.463946360433 2.88355223734271e-006
   endloop
endfacet
facet normal 0.0 0.0 -1.0
   outer loop
      vertex 822.374385014781 152.463946360433 2.88355223734271e-006
      vertex 809.474385014781 148.369202248759 2.88355223734271e-006
      vertex 822.060252273471 152.683904473897 2.88355223734271e-006
   endloop
endfacet
facet normal 0.0 0.0 -1.0
   outer loop
      vertex 822.060252273471 152.683904473897 2.88355223734271e-006
      vertex 809.474385014781 148.369202248759 2.88355223734271e-006
      vertex 821.789087239919 152.955069507449 2.88355223734271e-006
   endloop
endfacet
facet normal 0.0 0.0 -1.0
   outer loop
      vertex 821.789087239919 152.955069507449 2.88355223734271e-006
      vertex 809.474385014781 148.369202248759 2.88355223734271e-006
      vertex 821.569129126455 153.269202248759 2.88355223734271e-006
   endloop
endfacet
facet normal 0.0 0.0 -1.0
   outer loop
      vertex 821.569129126455 153.269202248759 2.88355223734271e-006
      vertex 809.474385014781 148.369202248759 2.88355223734271e-006
      vertex 821.407061249052 153.616757933443 2.88355223734271e-006
   endloop
endfacet
facet normal 0.0 0.0 -1.0
   outer loop
      vertex 821.407061249052 153.616757933443 2.88355223734271e-006
      vertex 809.474385014781 148.369202248759 2.88355223734271e-006
      vertex 821.307807958154 153.987176257892 2.88355223734271e-006
   endloop
endfacet
facet normal 0.0 0.0 -1.0
   outer loop
      vertex 821.307807958154 153.987176257892 2.88355223734271e-006
      vertex 809.474385014781 148.369202248759 2.88355223734271e-006
      vertex 821.274385014781 154.369202248759 2.88355223734271e-006
   endloop
endfacet
facet normal 0.0 0.0 -1.0
   outer loop
      vertex 839.984385014781 148.369202248759 2.88355223734271e-006
      vertex 823.092359023914 152.202625192132 2.88355223734271e-006
      vertex 823.474385014781 152.169202248759 2.88355223734271e-006
   endloop
endfacet
facet normal 0.0 0.0 -1.0
   outer loop
      vertex 839.984385014781 148.369202248759 2.88355223734271e-006
      vertex 823.474385014781 152.169202248759 2.88355223734271e-006
      vertex 823.856411005648 152.202625192132 2.88355223734271e-006
   endloop
endfacet
facet normal 0.0 0.0 -1.0
   outer loop
      vertex 839.984385014781 148.369202248759 2.88355223734271e-006
      vertex 823.856411005648 152.202625192132 2.88355223734271e-006
      vertex 824.226829330097 152.30187848303 2.88355223734271e-006
   endloop
endfacet
facet normal 0.0 0.0 -1.0
   outer loop
      vertex 839.984385014781 148.369202248759 2.88355223734271e-006
      vertex 824.226829330097 152.30187848303 2.88355223734271e-006
      vertex 824.574385014781 152.463946360433 2.88355223734271e-006
   endloop
endfacet
facet normal 0.0 0.0 -1.0
   outer loop
      vertex 839.984385014781 148.369202248759 2.88355223734271e-006
      vertex 824.574385014781 152.463946360433 2.88355223734271e-006
      vertex 824.888517756091 152.683904473897 2.88355223734271e-006
   endloop
endfacet
facet normal 0.0 0.0 -1.0
   outer loop
      vertex 839.984385014781 148.369202248759 2.88355223734271e-006
      vertex 824.888517756091 152.683904473897 2.88355223734271e-006
      vertex 825.159682789643 152.955069507449 2.88355223734271e-006
   endloop
endfacet
facet normal 0.0 0.0 -1.0
   outer loop
      vertex 839.984385014781 148.369202248759 2.88355223734271e-006
      vertex 825.159682789643 152.955069507449 2.88355223734271e-006
      vertex 825.379640903107 153.269202248759 2.88355223734271e-006
   endloop
endfacet
facet normal 0.0 0.0 -1.0
   outer loop
      vertex 839.984385014781 148.369202248759 2.88355223734271e-006
      vertex 825.379640903107 153.269202248759 2.88355223734271e-006
      vertex 825.54170878051 153.616757933443 2.88355223734271e-006
   endloop
endfacet
facet normal 0.0 0.0 -1.0
   outer loop
      vertex 839.984385014781 148.369202248759 2.88355223734271e-006
      vertex 825.54170878051 153.616757933443 2.88355223734271e-006
      vertex 825.640962071408 153.987176257892 2.88355223734271e-006
   endloop
endfacet
facet normal 0.0 0.0 -1.0
   outer loop
      vertex 839.984385014781 148.369202248759 2.88355223734271e-006
      vertex 825.640962071408 153.987176257892 2.88355223734271e-006
      vertex 825.674385014781 154.369202248759 2.88355223734271e-006
   endloop
endfacet
facet normal 0.0 0.0 -1.0
   outer loop
      vertex 839.984385014781 148.369202248759 2.88355223734271e-006
      vertex 825.674385014781 154.369202248759 2.88355223734271e-006
      vertex 839.984385014781 164.879202248759 2.88355223734271e-006
   endloop
endfacet
facet normal -0.0871557427476056 0.99619469809175 -0.0
   outer loop
      vertex 823.474385014781 152.169202248759 3.00000288355224
      vertex 823.856411005648 152.202625192132 2.88355223734271e-006
      vertex 823.474385014781 152.169202248759 2.88355223734271e-006
   endloop
endfacet
facet normal -0.0871557427476056 0.99619469809175 -0.0
   outer loop
      vertex 823.856411005648 152.202625192132 2.88355223734271e-006
      vertex 823.474385014781 152.169202248759 3.00000288355224
      vertex 823.856411005648 152.202625192132 3.00000288355224
   endloop
endfacet
facet normal 0.906307787036861 -0.422618261740247 -0.0
   outer loop
      vertex 821.569129126455 155.469202248759 2.88355223734271e-006
      vertex 821.407061249052 155.121646564076 3.00000288355224
      vertex 821.407061249052 155.121646564076 2.88355223734271e-006
   endloop
endfacet
facet normal 0.906307787036861 -0.422618261740247 -0.0
   outer loop
      vertex 821.407061249052 155.121646564076 3.00000288355224
      vertex 821.569129126455 155.469202248759 2.88355223734271e-006
      vertex 821.569129126455 155.469202248759 3.00000288355224
   endloop
endfacet
facet normal 0.965925826289032 -0.258819045102658 -0.0
   outer loop
      vertex 821.407061249052 155.121646564076 2.88355223734271e-006
      vertex 821.307807958154 154.751228239626 3.00000288355224
      vertex 821.307807958154 154.751228239626 2.88355223734271e-006
   endloop
endfacet
facet normal 0.965925826289032 -0.258819045102658 -0.0
   outer loop
      vertex 821.307807958154 154.751228239626 3.00000288355224
      vertex 821.407061249052 155.121646564076 2.88355223734271e-006
      vertex 821.407061249052 155.121646564076 3.00000288355224
   endloop
endfacet
facet normal 0.996194698091766 -0.0871557427474231 -0.0
   outer loop
      vertex 821.307807958154 154.751228239626 2.88355223734271e-006
      vertex 821.274385014781 154.369202248759 3.00000288355224
      vertex 821.274385014781 154.369202248759 2.88355223734271e-006
   endloop
endfacet
facet normal 0.996194698091766 -0.0871557427474231 -0.0
   outer loop
      vertex 821.274385014781 154.369202248759 3.00000288355224
      vertex 821.307807958154 154.751228239626 2.88355223734271e-006
      vertex 821.307807958154 154.751228239626 3.00000288355224
   endloop
endfacet
facet normal -0.707106781186563 -0.707106781186532 0.0
   outer loop
      vertex 808.474385014781 149.369202248759 3.00000288355224
      vertex 809.474385014781 148.369202248759 2.88355223734271e-006
      vertex 809.474385014781 148.369202248759 3.00000288355224
   endloop
endfacet
facet normal -0.707106781186563 -0.707106781186532 0.0
   outer loop
      vertex 809.474385014781 148.369202248759 2.88355223734271e-006
      vertex 808.474385014781 149.369202248759 3.00000288355224
      vertex 808.474385014781 149.369202248759 2.88355223734271e-006
   endloop
endfacet
facet normal -0.0 -0.0 1.0
   outer loop
      vertex 809.474385014781 148.369202248759 3.00000288355224
      vertex 821.307807958154 153.987176257892 3.00000288355224
      vertex 821.274385014781 154.369202248759 3.00000288355224
   endloop
endfacet
facet normal -0.0 -0.0 1.0
   outer loop
      vertex 821.307807958154 153.987176257892 3.00000288355224
      vertex 809.474385014781 148.369202248759 3.00000288355224
      vertex 821.407061249052 153.616757933443 3.00000288355224
   endloop
endfacet
facet normal -0.0 -0.0 1.0
   outer loop
      vertex 821.407061249052 153.616757933443 3.00000288355224
      vertex 809.474385014781 148.369202248759 3.00000288355224
      vertex 821.569129126455 153.269202248759 3.00000288355224
   endloop
endfacet
facet normal -0.0 -0.0 1.0
   outer loop
      vertex 821.569129126455 153.269202248759 3.00000288355224
      vertex 809.474385014781 148.369202248759 3.00000288355224
      vertex 821.789087239919 152.955069507449 3.00000288355224
   endloop
endfacet
facet normal -0.0 -0.0 1.0
   outer loop
      vertex 821.789087239919 152.955069507449 3.00000288355224
      vertex 809.474385014781 148.369202248759 3.00000288355224
      vertex 822.060252273471 152.683904473897 3.00000288355224
   endloop
endfacet
facet normal -0.0 -0.0 1.0
   outer loop
      vertex 822.060252273471 152.683904473897 3.00000288355224
      vertex 809.474385014781 148.369202248759 3.00000288355224
      vertex 822.374385014781 152.463946360433 3.00000288355224
   endloop
endfacet
facet normal -0.0 -0.0 1.0
   outer loop
      vertex 822.374385014781 152.463946360433 3.00000288355224
      vertex 809.474385014781 148.369202248759 3.00000288355224
      vertex 822.721940699465 152.30187848303 3.00000288355224
   endloop
endfacet
facet normal -0.0 -0.0 1.0
   outer loop
      vertex 822.721940699465 152.30187848303 3.00000288355224
      vertex 809.474385014781 148.369202248759 3.00000288355224
      vertex 823.092359023914 152.202625192132 3.00000288355224
   endloop
endfacet
facet normal -0.0 -0.0 1.0
   outer loop
      vertex 823.092359023914 152.202625192132 3.00000288355224
      vertex 809.474385014781 148.369202248759 3.00000288355224
      vertex 837.474385014781 148.369202248759 3.00000288355224
   endloop
endfacet
facet normal -0.0 -0.0 1.0
   outer loop
      vertex 823.092359023914 152.202625192132 3.00000288355224
      vertex 837.474385014781 148.369202248759 3.00000288355224
      vertex 823.474385014781 152.169202248759 3.00000288355224
   endloop
endfacet
facet normal -0.0 -0.0 1.0
   outer loop
      vertex 823.474385014781 152.169202248759 3.00000288355224
      vertex 837.474385014781 148.369202248759 3.00000288355224
      vertex 823.856411005648 152.202625192132 3.00000288355224
   endloop
endfacet
facet normal -0.0 -0.0 1.0
   outer loop
      vertex 823.856411005648 152.202625192132 3.00000288355224
      vertex 837.474385014781 148.369202248759 3.00000288355224
      vertex 824.226829330097 152.30187848303 3.00000288355224
   endloop
endfacet
facet normal -0.0 -0.0 1.0
   outer loop
      vertex 824.226829330097 152.30187848303 3.00000288355224
      vertex 837.474385014781 148.369202248759 3.00000288355224
      vertex 824.574385014781 152.463946360433 3.00000288355224
   endloop
endfacet
facet normal -0.0 -0.0 1.0
   outer loop
      vertex 824.574385014781 152.463946360433 3.00000288355224
      vertex 837.474385014781 148.369202248759 3.00000288355224
      vertex 824.888517756091 152.683904473897 3.00000288355224
   endloop
endfacet
facet normal -0.0 -0.0 1.0
   outer loop
      vertex 824.888517756091 152.683904473897 3.00000288355224
      vertex 837.474385014781 148.369202248759 3.00000288355224
      vertex 825.159682789643 152.955069507449 3.00000288355224
   endloop
endfacet
facet normal -0.0 -0.0 1.0
   outer loop
      vertex 825.159682789643 152.955069507449 3.00000288355224
      vertex 837.474385014781 148.369202248759 3.00000288355224
      vertex 825.379640903107 153.269202248759 3.00000288355224
   endloop
endfacet
facet normal -0.0 -0.0 1.0
   outer loop
      vertex 825.379640903107 153.269202248759 3.00000288355224
      vertex 837.474385014781 148.369202248759 3.00000288355224
      vertex 825.54170878051 153.616757933443 3.00000288355224
   endloop
endfacet
facet normal -0.0 -0.0 1.0
   outer loop
      vertex 825.54170878051 153.616757933443 3.00000288355224
      vertex 837.474385014781 148.369202248759 3.00000288355224
      vertex 825.640962071408 153.987176257892 3.00000288355224
   endloop
endfacet
facet normal -0.0 -0.0 1.0
   outer loop
      vertex 825.640962071408 153.987176257892 3.00000288355224
      vertex 837.474385014781 148.369202248759 3.00000288355224
      vertex 825.674385014781 154.369202248759 3.00000288355224
   endloop
endfacet
facet normal -0.0 -0.0 1.0
   outer loop
      vertex 809.474385014781 148.369202248759 3.00000288355224
      vertex 808.474385014781 162.369202248759 3.00000288355224
      vertex 808.474385014781 149.369202248759 3.00000288355224
   endloop
endfacet
facet normal -0.0 -0.0 1.0
   outer loop
      vertex 808.474385014781 162.369202248759 3.00000288355224
      vertex 809.474385014781 148.369202248759 3.00000288355224
      vertex 822.374385014781 156.274458137085 3.00000288355224
   endloop
endfacet
facet normal -0.0 -0.0 1.0
   outer loop
      vertex 808.474385014781 162.369202248759 3.00000288355224
      vertex 822.374385014781 156.274458137085 3.00000288355224
      vertex 822.721940699465 156.436526014488 3.00000288355224
   endloop
endfacet
facet normal -0.0 -0.0 1.0
   outer loop
      vertex 808.474385014781 162.369202248759 3.00000288355224
      vertex 822.721940699465 156.436526014488 3.00000288355224
      vertex 837.474385014781 162.369202248759 3.00000288355224
   endloop
endfacet
facet normal -0.0 -0.0 1.0
   outer loop
      vertex 822.374385014781 156.274458137085 3.00000288355224
      vertex 809.474385014781 148.369202248759 3.00000288355224
      vertex 822.060252273471 156.054500023621 3.00000288355224
   endloop
endfacet
facet normal -0.0 -0.0 1.0
   outer loop
      vertex 822.060252273471 156.054500023621 3.00000288355224
      vertex 809.474385014781 148.369202248759 3.00000288355224
      vertex 821.789087239919 155.78333499007 3.00000288355224
   endloop
endfacet
facet normal -0.0 -0.0 1.0
   outer loop
      vertex 821.789087239919 155.78333499007 3.00000288355224
      vertex 809.474385014781 148.369202248759 3.00000288355224
      vertex 821.569129126455 155.469202248759 3.00000288355224
   endloop
endfacet
facet normal -0.0 -0.0 1.0
   outer loop
      vertex 821.569129126455 155.469202248759 3.00000288355224
      vertex 809.474385014781 148.369202248759 3.00000288355224
      vertex 821.407061249052 155.121646564076 3.00000288355224
   endloop
endfacet
facet normal -0.0 -0.0 1.0
   outer loop
      vertex 821.407061249052 155.121646564076 3.00000288355224
      vertex 809.474385014781 148.369202248759 3.00000288355224
      vertex 821.307807958154 154.751228239626 3.00000288355224
   endloop
endfacet
facet normal -0.0 -0.0 1.0
   outer loop
      vertex 821.307807958154 154.751228239626 3.00000288355224
      vertex 809.474385014781 148.369202248759 3.00000288355224
      vertex 821.274385014781 154.369202248759 3.00000288355224
   endloop
endfacet
facet normal -0.0 -0.0 1.0
   outer loop
      vertex 837.474385014781 162.369202248759 3.00000288355224
      vertex 822.721940699465 156.436526014488 3.00000288355224
      vertex 823.092359023914 156.535779305386 3.00000288355224
   endloop
endfacet
facet normal -0.0 -0.0 1.0
   outer loop
      vertex 837.474385014781 162.369202248759 3.00000288355224
      vertex 823.092359023914 156.535779305386 3.00000288355224
      vertex 823.474385014781 156.569202248759 3.00000288355224
   endloop
endfacet
facet normal -0.0 -0.0 1.0
   outer loop
      vertex 837.474385014781 162.369202248759 3.00000288355224
      vertex 823.474385014781 156.569202248759 3.00000288355224
      vertex 823.856411005648 156.535779305386 3.00000288355224
   endloop
endfacet
facet normal -0.0 -0.0 1.0
   outer loop
      vertex 837.474385014781 162.369202248759 3.00000288355224
      vertex 823.856411005648 156.535779305386 3.00000288355224
      vertex 824.226829330097 156.436526014488 3.00000288355224
   endloop
endfacet
facet normal -0.0 -0.0 1.0
   outer loop
      vertex 837.474385014781 162.369202248759 3.00000288355224
      vertex 824.226829330097 156.436526014488 3.00000288355224
      vertex 824.574385014781 156.274458137085 3.00000288355224
   endloop
endfacet
facet normal -0.0 -0.0 1.0
   outer loop
      vertex 837.474385014781 162.369202248759 3.00000288355224
      vertex 824.574385014781 156.274458137085 3.00000288355224
      vertex 824.888517756091 156.054500023621 3.00000288355224
   endloop
endfacet
facet normal -0.0 -0.0 1.0
   outer loop
      vertex 837.474385014781 162.369202248759 3.00000288355224
      vertex 824.888517756091 156.054500023621 3.00000288355224
      vertex 825.159682789643 155.78333499007 3.00000288355224
   endloop
endfacet
facet normal -0.0 -0.0 1.0
   outer loop
      vertex 837.474385014781 162.369202248759 3.00000288355224
      vertex 825.159682789643 155.78333499007 3.00000288355224
      vertex 825.379640903107 155.469202248759 3.00000288355224
   endloop
endfacet
facet normal -0.0 -0.0 1.0
   outer loop
      vertex 837.474385014781 162.369202248759 3.00000288355224
      vertex 825.379640903107 155.469202248759 3.00000288355224
      vertex 825.54170878051 155.121646564076 3.00000288355224
   endloop
endfacet
facet normal -0.0 -0.0 1.0
   outer loop
      vertex 837.474385014781 162.369202248759 3.00000288355224
      vertex 825.54170878051 155.121646564076 3.00000288355224
      vertex 825.640962071408 154.751228239626 3.00000288355224
   endloop
endfacet
facet normal -0.0 -0.0 1.0
   outer loop
      vertex 837.474385014781 162.369202248759 3.00000288355224
      vertex 825.640962071408 154.751228239626 3.00000288355224
      vertex 825.674385014781 154.369202248759 3.00000288355224
   endloop
endfacet
facet normal -0.0 -0.0 1.0
   outer loop
      vertex 837.474385014781 162.369202248759 3.00000288355224
      vertex 825.674385014781 154.369202248759 3.00000288355224
      vertex 837.474385014781 148.369202248759 3.00000288355224
   endloop
endfacet
facet normal 1.0 -0.0 -0.0
   outer loop
      vertex 839.984385014781 164.879202248759 2.88355223734271e-006
      vertex 839.984385014781 148.369202248759 5.00000288355224
      vertex 839.984385014781 148.369202248759 2.88355223734271e-006
   endloop
endfacet
facet normal 1.0 -0.0 -0.0
   outer loop
      vertex 839.984385014781 148.369202248759 5.00000288355224
      vertex 839.984385014781 164.879202248759 2.88355223734271e-006
      vertex 839.984385014781 164.879202248759 5.00000288355224
   endloop
endfacet
facet normal -0.0871557427476056 -0.99619469809175 0.0
   outer loop
      vertex 823.856411005648 156.535779305386 3.00000288355224
      vertex 823.474385014781 156.569202248759 2.88355223734271e-006
      vertex 823.856411005648 156.535779305386 2.88355223734271e-006
   endloop
endfacet
facet normal -0.0871557427476056 -0.99619469809175 0.0
   outer loop
      vertex 823.474385014781 156.569202248759 2.88355223734271e-006
      vertex 823.856411005648 156.535779305386 3.00000288355224
      vertex 823.474385014781 156.569202248759 3.00000288355224
   endloop
endfacet
facet normal 0.0871557427476873 -0.996194698091743 0.0
   outer loop
      vertex 823.474385014781 156.569202248759 3.00000288355224
      vertex 823.092359023914 156.535779305386 2.88355223734271e-006
      vertex 823.474385014781 156.569202248759 2.88355223734271e-006
   endloop
endfacet
facet normal 0.0871557427476873 -0.996194698091743 0.0
   outer loop
      vertex 823.092359023914 156.535779305386 2.88355223734271e-006
      vertex 823.474385014781 156.569202248759 3.00000288355224
      vertex 823.092359023914 156.535779305386 3.00000288355224
   endloop
endfacet
facet normal 0.965925826289032 0.258819045102658 -0.0
   outer loop
      vertex 821.307807958154 153.987176257892 2.88355223734271e-006
      vertex 821.407061249052 153.616757933443 3.00000288355224
      vertex 821.407061249052 153.616757933443 2.88355223734271e-006
   endloop
endfacet
facet normal 0.965925826289032 0.258819045102658 -0.0
   outer loop
      vertex 821.407061249052 153.616757933443 3.00000288355224
      vertex 821.307807958154 153.987176257892 2.88355223734271e-006
      vertex 821.307807958154 153.987176257892 3.00000288355224
   endloop
endfacet
facet normal -0.258819045102754 -0.965925826289006 0.0
   outer loop
      vertex 824.226829330097 156.436526014488 3.00000288355224
      vertex 823.856411005648 156.535779305386 2.88355223734271e-006
      vertex 824.226829330097 156.436526014488 2.88355223734271e-006
   endloop
endfacet
facet normal -0.258819045102754 -0.965925826289006 0.0
   outer loop
      vertex 823.856411005648 156.535779305386 2.88355223734271e-006
      vertex 824.226829330097 156.436526014488 3.00000288355224
      vertex 823.856411005648 156.535779305386 3.00000288355224
   endloop
endfacet
facet normal 0.0 -1.0 0.0
   outer loop
      vertex 839.984385014781 148.369202248759 2.88355223734271e-006
      vertex 837.474385014781 148.369202248759 3.00000288355224
      vertex 809.474385014781 148.369202248759 2.88355223734271e-006
   endloop
endfacet
facet normal 0.0 -1.0 0.0
   outer loop
      vertex 837.474385014781 148.369202248759 3.00000288355224
      vertex 839.984385014781 148.369202248759 2.88355223734271e-006
      vertex 839.984385014781 148.369202248759 5.00000288355224
   endloop
endfacet
facet normal 0.0 -1.0 0.0
   outer loop
      vertex 837.474385014781 148.369202248759 3.00000288355224
      vertex 839.984385014781 148.369202248759 5.00000288355224
      vertex 837.474385014781 148.369202248759 5.00000288355224
   endloop
endfacet
facet normal 0.0 -1.0 0.0
   outer loop
      vertex 809.474385014781 148.369202248759 3.00000288355224
      vertex 809.474385014781 148.369202248759 2.88355223734271e-006
      vertex 837.474385014781 148.369202248759 3.00000288355224
   endloop
endfacet
facet normal -0.573576436351085 0.819152044288964 -0.0
   outer loop
      vertex 824.574385014781 152.463946360433 3.00000288355224
      vertex 824.888517756091 152.683904473897 2.88355223734271e-006
      vertex 824.574385014781 152.463946360433 2.88355223734271e-006
   endloop
endfacet
facet normal -0.573576436351085 0.819152044288964 -0.0
   outer loop
      vertex 824.888517756091 152.683904473897 2.88355223734271e-006
      vertex 824.574385014781 152.463946360433 3.00000288355224
      vertex 824.888517756091 152.683904473897 3.00000288355224
   endloop
endfacet
facet normal -0.819152044288948 0.573576436351109 0.0
   outer loop
      vertex 825.379640903107 153.269202248759 3.00000288355224
      vertex 825.159682789643 152.955069507449 2.88355223734271e-006
      vertex 825.159682789643 152.955069507449 3.00000288355224
   endloop
endfacet
facet normal -0.819152044288948 0.573576436351109 0.0
   outer loop
      vertex 825.159682789643 152.955069507449 2.88355223734271e-006
      vertex 825.379640903107 153.269202248759 3.00000288355224
      vertex 825.379640903107 153.269202248759 2.88355223734271e-006
   endloop
endfacet
facet normal -0.707106781186548 0.707106781186548 -0.0
   outer loop
      vertex 825.159682789643 152.955069507449 3.00000288355224
      vertex 824.888517756091 152.683904473897 2.88355223734271e-006
      vertex 824.888517756091 152.683904473897 3.00000288355224
   endloop
endfacet
facet normal -0.707106781186548 0.707106781186548 -0.0
   outer loop
      vertex 824.888517756091 152.683904473897 2.88355223734271e-006
      vertex 825.159682789643 152.955069507449 3.00000288355224
      vertex 825.159682789643 152.955069507449 2.88355223734271e-006
   endloop
endfacet
facet normal -0.906307787036861 -0.422618261740247 0.0
   outer loop
      vertex 825.379640903107 155.469202248759 3.00000288355224
      vertex 825.54170878051 155.121646564076 2.88355223734271e-006
      vertex 825.54170878051 155.121646564076 3.00000288355224
   endloop
endfacet
facet normal -0.906307787036861 -0.422618261740247 0.0
   outer loop
      vertex 825.54170878051 155.121646564076 2.88355223734271e-006
      vertex 825.379640903107 155.469202248759 3.00000288355224
      vertex 825.379640903107 155.469202248759 2.88355223734271e-006
   endloop
endfacet
facet normal -0.965925826289032 -0.258819045102658 0.0
   outer loop
      vertex 825.54170878051 155.121646564076 3.00000288355224
      vertex 825.640962071408 154.751228239626 2.88355223734271e-006
      vertex 825.640962071408 154.751228239626 3.00000288355224
   endloop
endfacet
facet normal -0.965925826289032 -0.258819045102658 0.0
   outer loop
      vertex 825.640962071408 154.751228239626 2.88355223734271e-006
      vertex 825.54170878051 155.121646564076 3.00000288355224
      vertex 825.54170878051 155.121646564076 2.88355223734271e-006
   endloop
endfacet
facet normal -0.996194698091685 0.087155742748347 0.0
   outer loop
      vertex 825.674385014781 154.369202248759 3.00000288355224
      vertex 825.640962071408 153.987176257892 2.88355223734271e-006
      vertex 825.640962071408 153.987176257892 3.00000288355224
   endloop
endfacet
facet normal -0.996194698091685 0.087155742748347 0.0
   outer loop
      vertex 825.640962071408 153.987176257892 2.88355223734271e-006
      vertex 825.674385014781 154.369202248759 3.00000288355224
      vertex 825.674385014781 154.369202248759 2.88355223734271e-006
   endloop
endfacet
facet normal -0.996194698091684 -0.0871557427483572 0.0
   outer loop
      vertex 825.640962071408 154.751228239626 3.00000288355224
      vertex 825.674385014781 154.369202248759 2.88355223734271e-006
      vertex 825.674385014781 154.369202248759 3.00000288355224
   endloop
endfacet
facet normal -0.996194698091684 -0.0871557427483572 0.0
   outer loop
      vertex 825.674385014781 154.369202248759 2.88355223734271e-006
      vertex 825.640962071408 154.751228239626 3.00000288355224
      vertex 825.640962071408 154.751228239626 2.88355223734271e-006
   endloop
endfacet
facet normal -0.422618261740505 0.906307787036741 -0.0
   outer loop
      vertex 824.226829330097 152.30187848303 3.00000288355224
      vertex 824.574385014781 152.463946360433 2.88355223734271e-006
      vertex 824.226829330097 152.30187848303 2.88355223734271e-006
   endloop
endfacet
facet normal -0.422618261740505 0.906307787036741 -0.0
   outer loop
      vertex 824.574385014781 152.463946360433 2.88355223734271e-006
      vertex 824.226829330097 152.30187848303 3.00000288355224
      vertex 824.574385014781 152.463946360433 3.00000288355224
   endloop
endfacet
endsolid PrintKbot-FINAL
